<svg t="1659032182611" class="icon" viewBox="0 0 1024 1024" version="1.1" xmlns="http://www.w3.org/2000/svg" p-id="8575" width="200" height="200"><path d="M456.75 515.46c-109.24 0-198.11-88.88-198.11-198.11s88.88-198.11 198.11-198.11 198.1 88.87 198.1 198.11-88.87 198.11-198.1 198.11z m0-343.51c-80.18 0-145.41 65.23-145.41 145.4s65.23 145.4 145.41 145.4c80.17 0 145.39-65.23 145.39-145.4s-65.23-145.4-145.39-145.4zM768.76 904.76H144.73c-27.15 0-52.3-12.06-67.27-32.25-12.86-17.32-16.73-38.82-10.62-58.99 50.38-166.09 210.71-282.08 389.91-282.08s339.52 115.99 389.9 282.08c6.11 20.16 2.24 41.67-10.62 58.99-14.98 20.19-40.12 32.25-67.27 32.25zM456.75 584.15c-156.19 0-295.78 100.61-339.47 244.66-1.27 4.21-0.44 8.35 2.51 12.3 3.91 5.29 12.53 10.94 24.94 10.94h624.03c12.4 0 21.03-5.65 24.94-10.94 2.95-3.95 3.78-8.09 2.51-12.3-43.69-144.04-183.28-244.66-339.46-244.66zM933.65 497.64H724.27c-14.55 0-26.35-11.8-26.35-26.35s11.8-26.35 26.35-26.35h209.37c14.55 0 26.35 11.8 26.35 26.35s-11.79 26.35-26.34 26.35z" fill="#e6e6e6" p-id="8576"></path><path d="M828.97 602.32c-14.55 0-26.35-11.8-26.35-26.35V366.6c0-14.55 11.8-26.35 26.35-26.35s26.35 11.8 26.35 26.35v209.37c0 14.55-11.8 26.35-26.35 26.35z" fill="#e6e6e6" p-id="8577"></path></svg>