<svg t="1659032257160" class="icon" viewBox="0 0 1024 1024" version="1.1" xmlns="http://www.w3.org/2000/svg" p-id="10212" width="200" height="200"><path d="M377 603c24.3 0 44 19.7 44 44v312c0 24.3-19.7 44-44 44H65c-24.3 0-44-19.7-44-44V647c0-24.3 19.7-44 44-44h312z m500 0c24.3 0 44 19.7 44 44v312c0 24.3-19.7 44-44 44H565c-24.3 0-44-19.7-44-44V647c0-24.3 19.7-44 44-44h312zM752.113 51.27L972.73 271.887c17.183 17.183 17.183 45.043 0 62.226L752.113 554.73c-17.183 17.183-45.043 17.183-62.226 0L469.27 334.113c-17.183-17.183-17.183-45.043 0-62.226L689.887 51.27c17.183-17.183 45.043-17.183 62.226 0zM377 103c24.3 0 44 19.7 44 44v312c0 24.3-19.7 44-44 44H65c-24.3 0-44-19.7-44-44V147c0-24.3 19.7-44 44-44h312z" fill="#e6e6e6" p-id="10213"></path></svg>